<svg width="17" height="23" viewBox="0 0 17 23" fill="none" xmlns="http://www.w3.org/2000/svg">
<path fill-rule="evenodd" clip-rule="evenodd" d="M15.7313 0C16.1342 0.000114778 16.4611 0.29372 16.4612 0.655661V2.46065C16.4612 2.82269 16.1343 3.1162 15.7313 3.11631H9.1098V13.3546H16.504L16.5332 13.3559C16.8352 13.3716 17.0546 13.6276 16.988 13.8969L16.0514 17.6804L16.0464 17.6996C15.9885 17.8931 15.7929 18.0293 15.5681 18.0294H9.1098V22.6293C9.10966 22.834 8.92494 22.9999 8.69707 23H8.20093C7.97305 22.9999 7.78835 22.834 7.78821 22.6293V18.0294H1.56589L1.54451 18.0288C1.33381 18.0207 1.15167 17.8933 1.09115 17.7118L1.08544 17.6932L0.0154832 13.9097C-0.0640372 13.6284 0.172786 13.3546 0.495932 13.3546H7.78821V3.11631H1.00204C0.598908 3.11631 0.272103 2.82276 0.272103 2.46065V0.655661C0.272233 0.293649 0.598989 0 1.00204 0H15.7313ZM1.29573 16.0259L1.6942 17.4358H3.05001L2.69217 16.0259H1.29573ZM3.37007 16.0259L3.72791 17.4358H5.6105L5.25266 16.0259H3.37007ZM5.93056 16.0259L6.28841 17.4358H7.78821V16.0259H5.93056ZM9.1098 16.0259V17.4358H10.6923L11.0501 16.0259H9.1098ZM11.728 16.0259L11.3702 17.4358H13.2528L13.6106 16.0259H11.728ZM14.2885 16.0259L13.9307 17.4358H15.4355L15.784 16.0259H14.2885ZM1.12821 15.4324H2.54176L2.16467 13.9482H0.708356L1.12821 15.4324ZM3.21966 15.4324H5.10225L4.72517 13.9482H2.84258L3.21966 15.4324ZM5.78016 15.4324H7.78821V13.9482H5.40307L5.78016 15.4324ZM9.1098 15.4324H11.2005L11.5776 13.9482H9.1098V15.4324ZM11.8784 15.4324H13.761L14.1381 13.9482H12.2555L11.8784 15.4324ZM14.4389 15.4324H15.9309L16.298 13.9482H14.816L14.4389 15.4324Z" fill="#073C24"/>
<path d="M6.30908 12.1368C6.48398 12.0908 6.66749 12.1808 6.71896 12.3378C6.78147 12.529 6.84605 12.7104 6.91285 12.8808C6.97343 13.0353 6.8831 13.2047 6.71112 13.2592C6.53904 13.3136 6.35047 13.2325 6.28983 13.078C6.21874 12.8967 6.14997 12.7051 6.08454 12.5049C6.03342 12.3478 6.13415 12.1829 6.30908 12.1368Z" fill="#073C24"/>
<path d="M10.5069 12.1368C10.6817 12.183 10.7819 12.3479 10.7308 12.5049C10.6653 12.7051 10.5966 12.8967 10.5255 13.078C10.4648 13.2325 10.2763 13.3136 10.1042 13.2592C9.93225 13.2047 9.84189 13.0353 9.90246 12.8808C9.96927 12.7104 10.0338 12.529 10.0964 12.3378C10.1478 12.1807 10.3319 12.0906 10.5069 12.1368Z" fill="#073C24"/>
<path d="M3.92038 12.1067C4.075 12.0198 4.27907 12.062 4.37588 12.2008C4.49279 12.3687 4.61377 12.5294 4.738 12.6817C4.8457 12.8138 4.81376 12.9997 4.66671 13.0966C4.51956 13.1934 4.31267 13.1647 4.2048 13.0325C4.07044 12.8678 3.94058 12.6954 3.81559 12.5158C3.71889 12.3769 3.76575 12.1936 3.92038 12.1067Z" fill="#073C24"/>
<path d="M12.4394 12.2008C12.5362 12.062 12.7403 12.0198 12.8949 12.1067C13.0496 12.1936 13.0964 12.3769 12.9997 12.5158C12.8747 12.6954 12.7449 12.8678 12.6105 13.0325C12.5026 13.1647 12.2957 13.1934 12.1486 13.0966C12.0016 12.9997 11.9697 12.8138 12.0773 12.6817C12.2015 12.5294 12.3225 12.3687 12.4394 12.2008Z" fill="#073C24"/>
<path d="M4.80215 11.6854C4.97035 11.6219 5.16416 11.6931 5.23484 11.8442C5.31629 12.0183 5.40044 12.1855 5.48718 12.3455C5.56707 12.4929 5.49869 12.6707 5.33464 12.7425C5.1706 12.8142 4.97255 12.7528 4.89268 12.6055C4.80023 12.4349 4.71121 12.2575 4.62537 12.074C4.55472 11.9229 4.63395 11.7489 4.80215 11.6854Z" fill="#073C24"/>
<path d="M11.5805 11.8442C11.6511 11.6931 11.845 11.622 12.0132 11.6854C12.1814 11.7489 12.2606 11.9229 12.1899 12.074C12.1041 12.2575 12.0151 12.4349 11.9226 12.6055C11.8428 12.7528 11.6447 12.8142 11.4807 12.7425C11.3166 12.6707 11.2482 12.4929 11.3281 12.3455C11.4149 12.1855 11.499 12.0183 11.5805 11.8442Z" fill="#073C24"/>
<path d="M3.18473 10.7563C3.35155 10.6902 3.54653 10.7582 3.62028 10.908C3.70992 11.0902 3.80279 11.267 3.89899 11.4382C3.98119 11.5845 3.91572 11.7633 3.75286 11.8371C3.59015 11.9107 3.39175 11.8518 3.30948 11.7059C3.20796 11.5252 3.10978 11.3391 3.01579 11.1482C2.94201 10.9983 3.01787 10.8226 3.18473 10.7563Z" fill="#073C24"/>
<path d="M13.195 10.908C13.2688 10.7583 13.4638 10.6902 13.6306 10.7563C13.7974 10.8226 13.8733 10.9983 13.7995 11.1482C13.7055 11.3391 13.6073 11.5252 13.5058 11.7059C13.4235 11.8518 13.2252 11.9107 13.0625 11.8371C12.8996 11.7633 12.8341 11.5845 12.9163 11.4382C13.0125 11.2671 13.1054 11.0901 13.195 10.908Z" fill="#073C24"/>
<path d="M5.94981 10.7044C6.12853 10.6719 6.30266 10.7758 6.33902 10.9362C6.38277 11.1303 6.42871 11.3189 6.47588 11.501C6.51723 11.6606 6.40625 11.8205 6.22853 11.8576C6.05087 11.8946 5.87353 11.795 5.83219 11.6354C5.7835 11.4474 5.73668 11.2533 5.69177 11.054C5.65571 10.8935 5.77105 10.7369 5.94981 10.7044Z" fill="#073C24"/>
<path d="M10.8655 10.7044C11.0443 10.7369 11.1596 10.8935 11.1235 11.054C11.0786 11.2533 11.0318 11.4474 10.9831 11.6354C10.9418 11.795 10.7645 11.8947 10.5868 11.8576C10.4091 11.8205 10.2981 11.6606 10.3394 11.501C10.3866 11.3189 10.4325 11.1303 10.4763 10.9362C10.5126 10.7758 10.6868 10.672 10.8655 10.7044Z" fill="#073C24"/>
<path d="M4.30531 10.3439C4.47975 10.2965 4.66426 10.3852 4.71732 10.5418C4.77834 10.7224 4.84136 10.8988 4.90694 11.07C4.96628 11.225 4.87483 11.3938 4.70235 11.4472C4.52987 11.5005 4.34193 11.4183 4.2825 11.2634C4.21417 11.085 4.14828 10.9018 4.08504 10.7147C4.03207 10.5579 4.13071 10.3915 4.30531 10.3439Z" fill="#073C24"/>
<path d="M12.51 10.3439C12.6846 10.3915 12.7832 10.5579 12.7303 10.7147C12.667 10.9018 12.6011 11.085 12.5328 11.2634C12.4734 11.4183 12.2854 11.5005 12.113 11.4472C11.9405 11.3938 11.849 11.225 11.9084 11.07C11.974 10.8988 12.037 10.7224 12.098 10.5418C12.151 10.3852 12.3356 10.2966 12.51 10.3439Z" fill="#073C24"/>
<path d="M2.62445 9.33997C2.79812 9.28968 2.98475 9.37542 3.04074 9.53142C3.10877 9.72095 3.17995 9.9067 3.25388 10.0885C3.31648 10.2424 3.2278 10.4132 3.05643 10.4694C2.8851 10.5255 2.6956 10.446 2.633 10.2921C2.55605 10.1029 2.48185 9.90979 2.41131 9.71326C2.35547 9.55737 2.45097 9.39031 2.62445 9.33997Z" fill="#073C24"/>
<path d="M13.7753 9.53142C13.8313 9.37542 14.0172 9.28968 14.1909 9.33997C14.3644 9.39029 14.4599 9.55735 14.404 9.71326C14.3335 9.9098 14.2593 10.1029 14.1823 10.2921C14.1197 10.446 13.9302 10.5256 13.7589 10.4694C13.5875 10.4132 13.4995 10.2424 13.5621 10.0885C13.6361 9.9067 13.7073 9.72095 13.7753 9.53142Z" fill="#073C24"/>
<path d="M5.68963 9.25545C5.87015 9.23173 6.03814 9.3443 6.06458 9.50644C6.09637 9.70148 6.12971 9.89295 6.16437 10.0801C6.19417 10.2418 6.07199 10.3945 5.89207 10.4214C5.71223 10.4481 5.5421 10.339 5.51213 10.1775C5.47672 9.98623 5.4426 9.79099 5.4102 9.59224C5.38377 9.43008 5.50909 9.2792 5.68963 9.25545Z" fill="#073C24"/>
<path d="M11.1257 9.25545C11.3062 9.2792 11.4315 9.43008 11.4051 9.59224C11.3727 9.79099 11.3386 9.98623 11.3032 10.1775C11.2732 10.339 11.1031 10.4482 10.9232 10.4214C10.7433 10.3945 10.6218 10.2418 10.6517 10.0801C10.6863 9.89296 10.7189 9.70148 10.7507 9.50644C10.7772 9.34432 10.9452 9.23177 11.1257 9.25545Z" fill="#073C24"/>
<path d="M3.93036 8.97116C4.10839 8.93531 4.28533 9.03599 4.32527 9.1959C4.37125 9.38005 4.41923 9.56129 4.46926 9.73887C4.51385 9.89768 4.40654 10.0592 4.22975 10.0994C4.05293 10.1394 3.87316 10.043 3.82842 9.88422C3.77688 9.70125 3.72739 9.51506 3.68015 9.32588C3.64022 9.16598 3.75236 9.00707 3.93036 8.97116Z" fill="#073C24"/>
<path d="M12.885 8.97116C13.063 9.00704 13.1751 9.16596 13.1352 9.32588C13.0879 9.51506 13.0384 9.70125 12.9869 9.88422C12.9421 10.0431 12.7624 10.1395 12.5856 10.0994C12.4088 10.0592 12.3015 9.89768 12.3461 9.73887C12.3961 9.56129 12.4441 9.38004 12.49 9.1959C12.53 9.03599 12.7069 8.93531 12.885 8.97116Z" fill="#073C24"/>
<path d="M2.2053 7.88394C2.38289 7.84668 2.56071 7.94539 2.60235 8.10484C2.65289 8.29915 2.70603 8.49112 2.76203 8.67983C2.80897 8.83811 2.70436 9.00056 2.52822 9.04287C2.35193 9.08508 2.17035 8.99119 2.12333 8.83286C2.06552 8.63803 2.01072 8.44009 1.95866 8.23994C1.91732 8.08046 2.0278 7.92128 2.2053 7.88394Z" fill="#073C24"/>
<path d="M14.61 7.88394C14.7876 7.92126 14.898 8.08044 14.8566 8.23994C14.8046 8.44009 14.7498 8.63804 14.692 8.83286C14.645 8.99118 14.4634 9.08508 14.2871 9.04287C14.111 9.00054 14.0063 8.83809 14.0533 8.67983C14.1093 8.49111 14.1624 8.29916 14.213 8.10484C14.2546 7.94538 14.4324 7.84668 14.61 7.88394Z" fill="#073C24"/>
<path d="M5.4993 7.79686C5.68075 7.77962 5.84364 7.89831 5.86285 8.0613C5.88587 8.25668 5.91001 8.4495 5.93555 8.63949C5.95743 8.80217 5.82865 8.95016 5.64757 8.96988C5.46642 8.98953 5.30163 8.87328 5.27975 8.71056C5.25379 8.51751 5.22897 8.32168 5.20561 8.12341C5.18647 7.96052 5.318 7.81422 5.4993 7.79686Z" fill="#073C24"/>
<path d="M11.316 7.79686C11.4974 7.81419 11.6289 7.9605 11.6097 8.12341C11.5863 8.32168 11.5615 8.51751 11.5356 8.71056C11.5137 8.87328 11.3489 8.98953 11.1677 8.96988C10.9867 8.95013 10.8579 8.80215 10.8798 8.63949C10.9053 8.4495 10.9294 8.25668 10.9525 8.0613C10.9717 7.89831 11.1346 7.77962 11.316 7.79686Z" fill="#073C24"/>
<path d="M3.65093 7.58108C3.83093 7.55457 4.00125 7.66402 4.03087 7.82567C4.06481 8.0115 4.10088 8.19518 4.1385 8.37633C4.17197 8.53743 4.05339 8.69264 3.87404 8.72272C3.69467 8.75279 3.52188 8.64629 3.4884 8.48518C3.44988 8.29971 3.41332 8.11165 3.37863 7.92172C3.34925 7.76017 3.47114 7.60776 3.65093 7.58108Z" fill="#073C24"/>
<path d="M13.1644 7.58108C13.3442 7.60773 13.4661 7.76014 13.4367 7.92172C13.402 8.11166 13.3654 8.29971 13.3269 8.48518C13.2934 8.64629 13.1206 8.75278 12.9413 8.72272C12.762 8.69262 12.6441 8.53741 12.6775 8.37633C12.7151 8.19522 12.7505 8.01147 12.7844 7.82567C12.8141 7.66401 12.9844 7.55457 13.1644 7.58108Z" fill="#073C24"/>
<path d="M1.9052 6.40486C2.08518 6.37886 2.25455 6.48906 2.28372 6.65073C2.3192 6.84753 2.35717 7.0425 2.39777 7.23532C2.43168 7.39637 2.31402 7.5519 2.13473 7.58236C1.9555 7.61274 1.78301 7.50645 1.74909 7.34545C1.70739 7.14739 1.66787 6.94736 1.63147 6.7455C1.60231 6.58371 1.72509 6.43107 1.9052 6.40486Z" fill="#073C24"/>
<path d="M14.9108 6.40486C15.0908 6.43119 15.213 6.5838 15.1838 6.7455C15.1475 6.94733 15.1086 7.14743 15.0669 7.34545C15.033 7.50647 14.8598 7.61278 14.6806 7.58236C14.5013 7.5519 14.3836 7.39637 14.4175 7.23532C14.4581 7.0425 14.4961 6.84753 14.5316 6.65073C14.5608 6.48896 14.7307 6.37866 14.9108 6.40486Z" fill="#073C24"/>
<path d="M5.36529 6.33379C5.54723 6.32185 5.7055 6.44441 5.71885 6.60783C5.73482 6.80364 5.75188 6.99782 5.77018 7.18986C5.78567 7.35309 5.65106 7.49662 5.46936 7.51065C5.28759 7.52462 5.12784 7.40371 5.11223 7.24044C5.0937 7.04596 5.07564 6.84952 5.05948 6.65137C5.04615 6.48791 5.18331 6.34577 5.36529 6.33379Z" fill="#073C24"/>
<path d="M11.45 6.33379C11.632 6.34577 11.7692 6.48791 11.7558 6.65137C11.7397 6.84951 11.7223 7.04596 11.7038 7.24044C11.6882 7.40373 11.5277 7.52462 11.346 7.51065C11.1643 7.49659 11.0296 7.35306 11.0451 7.18986C11.0634 6.99782 11.0805 6.80364 11.0965 6.60783C11.1098 6.44443 11.2681 6.32189 11.45 6.33379Z" fill="#073C24"/>
<path d="M3.45133 6.1782C3.63252 6.15966 3.79622 6.27671 3.81702 6.43944C3.84081 6.62627 3.86606 6.81171 3.89329 6.99521C3.91738 7.15766 3.79043 7.30714 3.60958 7.3288C3.42887 7.35035 3.26243 7.23625 3.2382 7.07397C3.21042 6.88681 3.18474 6.69767 3.1605 6.50731C3.13976 6.34447 3.27005 6.19682 3.45133 6.1782Z" fill="#073C24"/>
<path d="M13.364 6.1782C13.5453 6.19682 13.6755 6.34447 13.6548 6.50731C13.6306 6.69766 13.6049 6.88681 13.5771 7.07397C13.5529 7.23626 13.3865 7.35039 13.2057 7.3288C13.0249 7.30714 12.8979 7.15766 12.922 6.99521C12.9493 6.81171 12.9745 6.62627 12.9983 6.43944C13.0191 6.27672 13.1828 6.1597 13.364 6.1782Z" fill="#073C24"/>
<path d="M1.70846 4.9117C1.88998 4.8954 2.05236 5.01439 2.07058 5.17742C2.09264 5.37567 2.11702 5.57285 2.144 5.76841C2.1664 5.93097 2.03767 6.07918 1.85673 6.09944C1.67567 6.11958 1.51066 6.00403 1.48819 5.8414C1.46057 5.64115 1.43521 5.43918 1.41263 5.23632C1.39468 5.07338 1.52705 4.92803 1.70846 4.9117Z" fill="#073C24"/>
<path d="M15.1069 4.9117C15.2883 4.928 15.4206 5.07336 15.4027 5.23632C15.3801 5.43918 15.3547 5.64115 15.3271 5.8414C15.3047 6.00402 15.1396 6.11958 14.9586 6.09944C14.7777 6.07915 14.6489 5.93095 14.6713 5.76841C14.6983 5.57285 14.7234 5.37567 14.7454 5.17742C14.7637 5.01442 14.9254 4.8954 15.1069 4.9117Z" fill="#073C24"/>
<path d="M5.27832 4.86816C5.46048 4.8608 5.61496 4.98757 5.62333 5.15117C5.63318 5.34675 5.64408 5.54141 5.65612 5.73447C5.66634 5.89812 5.5268 6.0384 5.34462 6.04758C5.16248 6.0567 5.00627 5.93137 4.99604 5.76777C4.98386 5.57253 4.9732 5.37577 4.96325 5.17806C4.9551 5.01439 5.0961 4.87557 5.27832 4.86816Z" fill="#073C24"/>
<path d="M11.537 4.86816C11.7192 4.87557 11.8602 5.01439 11.8521 5.17806C11.8421 5.37577 11.8315 5.57253 11.8193 5.76777C11.809 5.93139 11.6529 6.05673 11.4707 6.04758C11.2885 6.0384 11.149 5.89812 11.1592 5.73447C11.1712 5.54141 11.1821 5.34676 11.192 5.15117C11.2004 4.98759 11.3549 4.86083 11.537 4.86816Z" fill="#073C24"/>
<path d="M3.32089 4.76955C3.5029 4.75797 3.66084 4.88139 3.67374 5.04488C3.68852 5.23222 3.70485 5.41878 3.72292 5.60385C3.7387 5.76702 3.60449 5.91096 3.42282 5.92528C3.24117 5.93957 3.08108 5.81884 3.06498 5.65572C3.04658 5.46729 3.02941 5.27712 3.01437 5.0865C3.00166 4.92313 3.13898 4.78113 3.32089 4.76955Z" fill="#073C24"/>
<path d="M13.4944 4.76955C13.6763 4.78113 13.8137 4.92313 13.8009 5.0865C13.7859 5.27712 13.7687 5.46729 13.7503 5.65572C13.7342 5.81884 13.5742 5.93959 13.3925 5.92528C13.2108 5.91095 13.0766 5.76701 13.0924 5.60385C13.1105 5.41878 13.1268 5.23221 13.1416 5.04488C13.1545 4.88141 13.3124 4.758 13.4944 4.76955Z" fill="#073C24"/>
<path d="M1.60795 3.41021C1.79019 3.40311 1.94426 3.53018 1.95225 3.69386C1.96185 3.89265 1.97421 4.09088 1.9886 4.28805C2.00051 4.45148 1.86255 4.59283 1.68066 4.60371C1.49867 4.61443 1.34131 4.49053 1.32923 4.32711C1.31452 4.12554 1.30198 3.92261 1.29217 3.71947C1.28441 3.55583 1.42575 3.41731 1.60795 3.41021Z" fill="#073C24"/>
<path d="M15.2074 3.41021C15.3896 3.41731 15.5309 3.55583 15.5231 3.71947C15.5133 3.92261 15.5008 4.12554 15.4861 4.32711C15.474 4.49044 15.3172 4.61428 15.1354 4.60371C14.9533 4.59299 14.8148 4.45158 14.8267 4.28805C14.8411 4.09088 14.8535 3.89265 14.8631 3.69386C14.871 3.5302 15.0251 3.40314 15.2074 3.41021Z" fill="#073C24"/>
<path d="M5.23413 3.39996C5.41648 3.39683 5.567 3.52748 5.57058 3.69129C5.57485 3.88664 5.58058 4.08142 5.58698 4.27524C5.59232 4.43903 5.44856 4.57581 5.2662 4.58066C5.08387 4.58546 4.93159 4.45632 4.92618 4.29253C4.91972 4.09674 4.9141 3.9001 4.90979 3.70282C4.90622 3.53896 5.0517 3.40318 5.23413 3.39996Z" fill="#073C24"/>
<path d="M11.5812 3.39996C11.7636 3.40318 11.9091 3.53896 11.9055 3.70282C11.9012 3.9001 11.8956 4.09674 11.8891 4.29253C11.8837 4.45634 11.7315 4.58549 11.5491 4.58066C11.3668 4.57581 11.223 4.43903 11.2283 4.27524C11.2347 4.08142 11.2405 3.88664 11.2447 3.69129C11.2483 3.5275 11.3989 3.39687 11.5812 3.39996Z" fill="#073C24"/>
<path d="M3.25459 3.35706C3.43691 3.35207 3.58897 3.48078 3.59461 3.64455C3.60104 3.83195 3.60921 4.01879 3.61885 4.20481C3.62732 4.36848 3.48668 4.50766 3.30449 4.51535C3.12223 4.52297 2.96727 4.39606 2.95877 4.23234C2.94897 4.04319 2.94107 3.85298 2.93453 3.66248C2.92908 3.49878 3.07231 3.36211 3.25459 3.35706Z" fill="#073C24"/>
<path d="M13.5607 3.35706C13.743 3.36211 13.8862 3.49878 13.8808 3.66248C13.8742 3.85298 13.8663 4.04319 13.8565 4.23234C13.848 4.39606 13.6931 4.52297 13.5108 4.51535C13.3287 4.50763 13.188 4.36846 13.1965 4.20481C13.2061 4.01879 13.2143 3.83195 13.2207 3.64455C13.2263 3.4808 13.3784 3.35211 13.5607 3.35706Z" fill="#073C24"/>
</svg>
